<?xml version="1.0" encoding="UTF-8" standalone="no"?>
<!DOCTYPE svg PUBLIC "-//W3C//DTD SVG 1.1//EN" "http://www.w3.org/Graphics/SVG/1.1/DTD/svg11.dtd">
<svg width="100%" height="100%" viewBox="0 0 1977 1977" version="1.1" xmlns="http://www.w3.org/2000/svg" xmlns:xlink="http://www.w3.org/1999/xlink" xml:space="preserve" xmlns:serif="http://www.serif.com/" style="fill-rule:evenodd;clip-rule:evenodd;stroke-linejoin:round;stroke-miterlimit:2;">
    <g transform="matrix(1,0,0,1,-275.311,-1252.55)">
        <g transform="matrix(1.05901,0,0,1.12599,-52.4165,715.917)">
            <rect x="309.465" y="476.592" width="1866.13" height="1755.64" style="fill:rgb(255,133,163);"/>
        </g>
        <g transform="matrix(1.94748,0,0,1.66627,-2756.41,-1695)">
            <ellipse cx="2054.77" cy="2367.79" rx="384.682" ry="465.937" style="fill:rgb(119,163,221);"/>
        </g>
        <g transform="matrix(1.52542,0,0,1.52542,305.609,1438.54)">
            <g transform="matrix(0.722096,0.072616,-0.0573382,0.921735,7.73044,-369.231)">
                <path d="M889.32,602.818C919.9,602.818 991.369,588.985 1020.38,595.69C1155.61,626.946 1223.57,745.374 1223.57,888.274C1223.57,1061.83 1083,1202.73 909.867,1202.73C736.73,1202.73 596.165,1061.83 596.165,888.274C596.165,756.931 654.753,653.129 763.233,614.186C798.095,601.67 847.212,602.818 889.32,602.818Z" style="fill:rgb(193,126,40);"/>
            </g>
            <g transform="matrix(0.677297,0,0,0.927743,10.6448,-307.415)">
                <path d="M896.357,601.783C863.937,600.44 899.41,835.342 850.606,906.463C801.803,977.583 685.171,979.462 626.082,1048.81C586.865,1094.83 549.88,1230.18 889.791,1230.42C1003.61,1230.5 1117.58,1229.91 1203.43,1134.26C1292.1,1035.48 1191.24,1065.72 1167.28,1024.04C1132.76,963.955 990.706,974.935 942.197,908.32C893.688,841.705 949.66,603.99 896.357,601.783Z" style="fill:rgb(254,254,254);"/>
            </g>
            <g transform="matrix(0.679156,0,0,0.679156,-33.5433,-734.964)">
                <ellipse cx="813.181" cy="1804.93" rx="65.972" ry="61.09" style="fill:white;"/>
            </g>
            <g transform="matrix(0.679156,0,0,0.679156,163.475,-739.349)">
                <ellipse cx="813.181" cy="1804.93" rx="65.972" ry="61.09" style="fill:white;"/>
            </g>
            <g transform="matrix(0.724351,0,0,0.920977,-71.9325,-317.519)">
                <ellipse cx="955.545" cy="1096.92" rx="63.446" ry="49.193"/>
            </g>
            <g transform="matrix(0.724351,0,0,0.965355,-36.7406,-373.423)">
                <path d="M646.706,878.285C646.056,868.63 690.729,1211.23 591.843,1237.4C449.572,1275.06 387.558,1067.41 376.206,1046.11C363.404,1022.09 493.87,768.766 509.357,758.997C578.121,715.622 730.801,665.684 730.801,665.684" style="fill:rgb(185,106,6);"/>
            </g>
            <g transform="matrix(-0.724351,0,0,0.965355,1260.33,-380.344)">
                <path d="M626.595,880.949C625.945,871.294 667.049,1201.28 564.476,1217.62C372.069,1248.25 384.51,1053.34 373.158,1032.04C360.356,1008.02 509.947,769.199 525.435,759.43C594.198,716.055 720.961,672.889 720.961,672.889" style="fill:rgb(185,106,6);"/>
            </g>
            <g transform="matrix(0.480086,0,0,0.570691,178.281,-27.3865)">
                <ellipse cx="758.261" cy="912.986" rx="34.908" ry="39.882"/>
            </g>
            <g transform="matrix(0.476233,0,0,0.559921,377.75,-23.0174)">
                <ellipse cx="758.261" cy="912.986" rx="34.908" ry="39.882"/>
            </g>
        </g>
    </g>
</svg>
